<?xml version="1.0" standalone="no"?>
<!DOCTYPE svg PUBLIC "-//W3C//DTD SVG 20010904//EN"
 "http://www.w3.org/TR/2001/REC-SVG-20010904/DTD/svg10.dtd">
<svg version="1.0" xmlns="http://www.w3.org/2000/svg"
 width="260.000000pt" height="260.000000pt" viewBox="0 0 260.000000 260.000000"
 preserveAspectRatio="xMidYMid meet">
<metadata>
Created by potrace 1.14, written by Peter Selinger 2001-2017
</metadata>
<g transform="translate(0.000000,260.000000) scale(0.100000,-0.100000)"
fill="#000000" stroke="none">
<path d="M0 1300 l0 -1300 1300 0 1300 0 0 1300 0 1300 -1300 0 -1300 0 0
-1300z m1861 541 c103 -39 158 -119 159 -226 0 -78 -39 -150 -104 -191 -52
-33 -55 -40 -23 -50 44 -14 107 -66 133 -110 53 -90 41 -224 -26 -306 -39 -47
-136 -94 -220 -108 -72 -11 -264 -13 -322 -4 l-38 7 0 498 0 499 23 5 c52 11
90 13 222 11 115 -3 150 -7 196 -25z m-828 -276 c54 -159 131 -386 171 -502
l72 -213 -70 0 -71 0 -55 160 -55 160 -177 0 -177 0 -53 -160 -53 -160 -67 0
c-38 0 -68 1 -68 3 0 2 214 633 300 885 l43 123 80 -3 80 -3 100 -290z"/>
<path d="M1573 1764 c-23 -5 -23 -7 -23 -171 l0 -165 98 4 c80 3 108 8 148 29
119 60 125 223 10 279 -47 22 -179 36 -233 24z"/>
<path d="M1550 1142 l0 -191 36 -7 c66 -12 173 3 233 33 44 22 61 37 79 73 12
24 22 63 22 85 0 22 -10 61 -22 85 -19 36 -34 51 -81 74 -51 25 -73 30 -163
34 l-104 5 0 -191z"/>
<path d="M840 1716 c0 -12 -115 -376 -137 -433 -4 -10 29 -13 145 -13 l150 0
-69 208 c-38 114 -69 215 -69 224 0 9 -4 20 -10 23 -5 3 -10 -1 -10 -9z"/>
</g>
</svg>
